<svg width="96" height="96" viewBox="0 0 96 96" fill="none" xmlns="http://www.w3.org/2000/svg">
  <defs>
    <linearGradient id="penGradient" x1="18" y1="12" x2="78" y2="78" gradientUnits="userSpaceOnUse">
      <stop stop-color="#7BC4FF"/>
      <stop offset="1" stop-color="#B18CFF"/>
    </linearGradient>
  </defs>
  <rect x="8" y="8" width="80" height="80" rx="20" fill="#0B101A"/>
  <path d="M36 60L28 68C26 70 25 74 27 76C29 78 33 78 35 76L43 68" stroke="#F2F5FF" stroke-width="4" stroke-linecap="round" stroke-linejoin="round"/>
  <path d="M58 20L76 38C78 40 78 44 76 46L54 68L40 54L62 32C64 30 64 26 62 24L58 20Z" fill="url(#penGradient)"/>
  <path d="M54 24L72 42" stroke="#F2F5FF" stroke-width="3" stroke-linecap="round"/>
  <path d="M38 56L54 72" stroke="#0B101A" stroke-width="6" stroke-linecap="round"/>
  <circle cx="48" cy="48" r="6" fill="#0B101A"/>
  <path d="M24 46C31 44 36 42 42 46C48 50 53 52 60 50" stroke="#7BC4FF" stroke-width="3" stroke-linecap="round" stroke-linejoin="round"/>
  <path d="M22 40C30 36 36 36 42 40" stroke="#50C878" stroke-width="3" stroke-linecap="round" stroke-linejoin="round"/>
</svg>
